<?xml version="1.0" encoding="UTF-8" standalone="no"?>
<!DOCTYPE svg PUBLIC "-//W3C//DTD SVG 1.1//EN" "http://www.w3.org/Graphics/SVG/1.1/DTD/svg11.dtd">
<svg width="100%" height="100%" viewBox="0 0 256 256" version="1.1" xmlns="http://www.w3.org/2000/svg" xmlns:xlink="http://www.w3.org/1999/xlink" xml:space="preserve" xmlns:serif="http://www.serif.com/" style="fill-rule:evenodd;clip-rule:evenodd;">
    <g transform="matrix(1,0,0,1,-17,0)">
        <g id="g4016" transform="matrix(0.349378,-0.0815035,0.0815035,0.349378,19.7024,59.0826)">
            <path id="path2846" d="M349.51,471.52C348.219,458.977 341.881,454.006 335.368,449.297C336.802,457.802 337.87,465.942 335.368,470.51C327.398,462.299 315.979,457.249 300.013,456.368C307.069,464.449 311.423,472.53 313.145,480.612C297.46,478.507 281.319,477.769 263.648,481.622C273.61,485.566 287.259,486.131 289.912,496.774C275.723,513.611 260.933,529.98 252.536,551.322C262.291,545.639 271.679,541.421 278.8,546.271C271.407,563.361 267.147,562.908 256.577,597.789C267.744,586.535 267.063,592.517 271.729,590.718L311.125,613.952C310.085,619.706 314.039,620.467 307.084,632.135C332.569,617.646 344.803,601.831 363.653,586.678C365.146,593.795 364.417,603.942 358.603,621.023C379.988,600.951 385.401,586.433 391.938,571.526C399.149,576.071 405.905,583.349 411.131,599.81C413.684,576.717 407.124,562.737 402.039,547.282C402.847,543.565 427.417,555.056 430.323,557.384C426.714,542.278 405.896,531.957 406.079,534.15C410.116,530.11 412.914,526.069 425.272,522.028C414.414,515.089 405.653,517.585 395.978,515.967L349.511,471.52L349.51,471.52Z" style="fill:rgb(170,68,0);fill-rule:nonzero;stroke:black;stroke-width:1px;"/>
            <path id="path2826" d="M357.14,472.36C357.14,472.36 316.563,451.03 287.854,490.931C262.869,525.657 269.069,627.711 243.568,665.221C277.413,629.837 371.288,605.913 396.428,575.221C424.704,540.692 401.428,500.935 401.428,500.935L357.142,472.364L357.14,472.36Z" style="fill:rgb(255,204,0);fill-rule:nonzero;stroke:black;stroke-width:1px;"/>
            <path id="path3810" d="M248,660.36C297.148,601.641 333.358,605.032 362,571.36C383.391,546.212 374,515.36 359,507.36C344,499.36 304.259,502.44 294,535.36C282.833,571.193 282.656,601.016 248,660.36Z" style="fill:rgb(255,255,0);fill-rule:nonzero;"/>
            <path id="path3814" d="M244.29,664.59C245.547,666.475 294.589,581.596 305.865,558.15C315.78,537.532 330.891,511.02 346.997,520.361C360.007,527.908 354.08,555.716 329.572,575.321C309.476,591.398 241.722,665.107 244.29,664.593L244.29,664.59Z" style="fill:white;fill-opacity:0.7;fill-rule:nonzero;"/>
        </g>
        <g id="g40161" serif:id="g4016" transform="matrix(0.376652,-0.0749772,0.0749772,0.376652,-90.9341,-4.19076)">
            <path id="path28461" serif:id="path2846" d="M349.51,471.52C348.219,458.977 341.881,454.006 335.368,449.297C336.802,457.802 337.87,465.942 335.368,470.51C327.398,462.299 315.979,457.249 300.013,456.368C307.069,464.449 311.423,472.53 313.145,480.612C297.46,478.507 281.319,477.769 263.648,481.622C273.61,485.566 287.259,486.131 289.912,496.774C275.723,513.611 260.933,529.98 252.536,551.322C262.291,545.639 271.679,541.421 278.8,546.271C271.407,563.361 267.147,562.908 256.577,597.789C267.744,586.535 267.063,592.517 271.729,590.718L311.125,613.952C310.085,619.706 314.039,620.467 307.084,632.135C332.569,617.646 344.803,601.831 363.653,586.678C365.146,593.795 364.417,603.942 358.603,621.023C379.988,600.951 385.401,586.433 391.938,571.526C399.149,576.071 405.905,583.349 411.131,599.81C413.684,576.717 407.124,562.737 402.039,547.282C402.847,543.565 427.417,555.056 430.323,557.384C426.714,542.278 405.896,531.957 406.079,534.15C410.116,530.11 412.914,526.069 425.272,522.028C414.414,515.089 405.653,517.585 395.978,515.967L349.511,471.52L349.51,471.52Z" style="fill:rgb(170,68,0);fill-rule:nonzero;stroke:black;stroke-width:1px;"/>
            <path id="path28261" serif:id="path2826" d="M357.14,472.36C357.14,472.36 316.563,451.03 287.854,490.931C262.869,525.657 269.069,627.711 243.568,665.221C277.413,629.837 371.288,605.913 396.428,575.221C424.704,540.692 401.428,500.935 401.428,500.935L357.142,472.364L357.14,472.36Z" style="fill:rgb(255,204,0);fill-rule:nonzero;stroke:black;stroke-width:1px;"/>
            <path id="path38101" serif:id="path3810" d="M248,660.36C297.148,601.641 333.358,605.032 362,571.36C383.391,546.212 374,515.36 359,507.36C344,499.36 304.259,502.44 294,535.36C282.833,571.193 282.656,601.016 248,660.36Z" style="fill:rgb(255,255,0);fill-rule:nonzero;"/>
            <path id="path38141" serif:id="path3814" d="M244.29,664.59C245.547,666.475 294.589,581.596 305.865,558.15C315.78,537.532 330.891,511.02 346.997,520.361C360.007,527.908 354.08,555.716 329.572,575.321C309.476,591.398 241.722,665.107 244.29,664.593L244.29,664.59Z" style="fill:white;fill-opacity:0.7;fill-rule:nonzero;"/>
        </g>
        <g transform="matrix(1.01594,0.420343,-0.420343,1.01594,7.09306,-688.628)">
            <g>
                <g id="layer1">
                    <g id="path3985" transform="matrix(1,0,0,1,-176.53,270.48)">
                        <path d="M562.97,252.38C559.047,252.842 555.029,254.326 551.501,255.786C547.974,257.246 544.806,258.737 543.626,259.13C541.129,259.962 540.383,261.892 539.72,263.599C539.056,265.306 538.642,267.177 538.314,269.005C537.83,271.695 537.75,273.054 537.657,274.224C537.09,274.608 536.579,275.039 536.157,275.505C535.191,276.572 534.42,277.843 533.689,279.255C532.226,282.079 530.942,285.556 529.845,289.005C528.235,294.065 527.255,298.106 526.72,300.411C526.72,300.411 526.354,342.603 523.218,348.131C520.977,352.084 515.688,353.821 512.406,367.475C508.813,382.419 506.281,405.322 506.281,413.256C506.281,417.608 508.264,420.964 510.906,422.631C513.547,424.298 516.437,424.537 518.656,424.537C520.156,424.537 526.056,424.953 532.125,425.162C538.193,425.371 544.411,425.489 548.594,424.443C555.361,422.752 559.969,421.037 559.969,421.037C561.213,420.571 562.006,419.332 561.909,418.007L560.253,396.726L560.253,384.569C562.329,384.366 567.483,383.854 575.065,383.038C579.552,382.555 584.144,382.038 587.846,381.569C589.696,381.335 591.327,381.116 592.627,380.913C593.927,380.709 594.723,380.6 595.658,380.288C598.519,379.334 600.49,379.316 602.627,380.007C603.052,380.144 604.488,381.179 605.502,382.225C606.241,382.988 606.496,383.337 606.752,383.663C606.847,384.46 607.516,390.124 608.283,396.944C608.692,400.586 609.102,404.324 609.408,407.35C609.714,410.376 609.908,412.926 609.908,413.256C609.908,416.083 611.036,419.023 612.595,421.975C613.375,423.451 614.296,424.828 615.408,426.006C616.52,427.185 617.936,428.381 620.095,428.381C621.746,428.381 629.895,428.392 638.126,428.256C642.242,428.188 646.366,428.069 649.751,427.912C653.137,427.756 655.356,427.713 657.283,427.162C659.19,426.618 660.617,425.02 661.22,423.475C661.824,421.929 661.918,420.39 661.876,418.85C661.793,415.769 661.035,412.609 660.47,410.35C660.041,408.634 657.464,395.997 655.126,384.288C652.897,373.123 651.777,368.766 651.158,363.35C649.918,352.519 649.565,342.605 648.939,339.162C648.051,334.277 649.589,321.96 646.751,306.068C645.328,298.096 642.515,288.283 638.658,279.787C634.801,271.291 630.136,263.863 623.314,261.349C617.64,259.259 611.233,258.349 605.626,257.787C600.019,257.225 595.021,256.944 593.188,256.537C590.695,255.983 585.022,254.764 579.094,253.756C573.165,252.747 567.207,251.882 562.969,252.381L562.97,252.38Z" style="fill-rule:nonzero;"/>
                    </g>
                    <path id="path3067" d="M363.9,546.77C358.388,547.046 352.601,573.778 352.601,573.778C352.601,573.778 349.417,609.31 350.884,614.014C351.515,616.036 346.186,621.788 341.822,630.621C333.813,646.829 332.759,676.574 332.759,683.739C332.759,690.904 338.27,692.007 342.129,692.007C345.987,692.007 364.728,693.66 371.342,692.007C377.956,690.353 382.366,688.7 382.366,688.7L380.712,667.204L380.712,652.322C380.712,652.322 414.885,649.015 418.193,647.912C421.5,646.81 424.268,646.749 427.012,647.637C429.855,648.556 433.075,652.873 433.075,652.873C433.075,652.873 436.382,680.432 436.382,683.739C436.382,687.046 440.241,695.865 443.548,695.865C446.855,695.865 476.068,695.865 479.926,694.762C483.784,693.66 482.13,685.943 481.028,681.534C479.926,677.125 471.107,632.479 471.107,632.479C471.107,632.479 471.965,626.416 471.965,623.109C471.965,619.802 470.556,616.219 469.453,610.156C468.351,604.093 470.004,592.518 467.249,577.085C464.493,561.652 456.225,538.502 445.753,534.644C435.28,530.786 420.95,531.062 415.989,529.959C411.028,528.857 393.552,525.027 386.776,525.825C380,526.623 371.343,531.337 368.036,532.439C364.728,533.542 363.902,546.77 363.902,546.77L363.9,546.77Z" style="fill:rgb(184,180,171);fill-rule:nonzero;"/>
                    <path id="path3999" d="M363.9,546.76C358.388,547.036 352.588,573.791 352.588,573.791L352.4,573.791L355.869,574.791L363.963,549.635L363.9,546.76ZM441.109,653.879C436.226,653.683 428.201,646.943 433.09,652.885C433.09,652.885 436.371,680.422 436.371,683.729C436.371,684.88 436.873,686.724 437.621,688.604C437.621,688.604 450.096,689.279 450.334,684.293L441.109,653.879ZM419.909,540.669C419.909,540.669 427.297,539.997 427.969,541.34C428.641,542.683 444.761,591.044 444.761,591.044C444.761,591.044 441.738,599.104 441.067,603.47L439.723,636.718L435.561,635.768L431.728,638.414L422.514,639.625L429.92,634.326L431.663,622.277L423.939,607.5L419.909,540.669ZM364.183,589.031L352.058,618.405C352.058,618.405 349.527,623.837 342.808,631.624C340.474,634.329 338.144,644.156 336.316,654.644C334.193,666.812 332.745,679.869 332.745,683.718C332.745,684.48 332.816,685.181 332.933,685.812C332.933,685.812 334.965,683.943 340.664,685.843L342.57,643.562L348.502,637.856C348.502,637.856 353.813,633.559 355.17,632.724C358.257,630.824 365.613,622.537 365.613,622.537L368.26,611.565L361.588,616.6L364.432,596.875L364.183,589.031ZM388.152,525.718C387.65,525.734 387.2,525.762 386.777,525.812C380.001,526.61 371.334,531.335 368.027,532.437C364.72,533.54 363.902,546.749 363.902,546.749C363.527,546.768 363.152,546.941 362.777,547.187L363.152,570.062L366.589,567.687C366.589,567.687 365.585,566.525 366.137,563.604C367.35,557.189 376.082,560.156 379.272,562.846C380.594,563.961 380.277,574.093 380.277,574.093C380.277,574.093 373.397,574.937 371.214,574.937C369.031,574.937 367.433,575.5 367.433,575.5L368.933,578.468L373.902,579.125L365.058,584.125C365.21,586.85 365.383,589.419 367.089,589.968L374.246,587.312L368.058,594.812L370.964,607.437L373.652,611.625L375.589,617.75C375.589,617.75 377.922,615.23 379.433,615.062C380.944,614.894 389.007,616.234 388.839,615.562C388.671,614.891 390.683,609.843 390.683,609.843C390.683,609.843 385.319,609.187 383.808,609.187C382.297,609.187 375.402,610.843 375.402,610.843L373.464,606.468C373.464,606.468 382.809,603.316 384.152,602.812C385.496,602.308 392.871,605.156 392.871,605.156L392.371,602.468C392.371,602.468 386.82,599.605 385.309,599.437C383.797,599.269 373.903,603.468 373.903,603.468C373.903,603.468 371.055,595.07 371.559,594.062C372.063,593.055 380.965,588.343 380.965,588.343C380.965,588.343 383.391,567.886 383.559,566.374C383.727,564.863 380.795,561.386 380.795,561.386C380.795,561.386 385.353,560.653 386.665,558.124C388.724,554.155 398.934,553.937 398.934,553.937C398.934,553.937 399.132,550.575 395.65,546.464C395.448,541.514 396.331,531.233 396.465,526.312C393.329,525.9 390.368,525.65 388.153,525.719L388.152,525.718ZM399.59,574.093L389.363,575.086L389.34,576.781L397.058,578.281L397.058,576.781L399.59,574.093Z" style="fill:rgb(231,231,221);fill-rule:nonzero;"/>
                    <path id="path3932" d="M412.96,534.37C412.96,534.37 415.44,548.701 413.236,550.079C411.031,551.457 410.755,556.418 410.755,556.418C410.755,556.418 413.236,564.685 413.236,566.891C413.236,569.095 412.684,573.229 412.133,575.985C411.582,578.741 415.165,584.804 415.165,586.182C415.165,587.56 414.338,605.473 412.409,607.678C410.48,609.883 406.07,620.631 406.07,620.631C406.07,620.631 388.432,622.009 384.298,621.734C380.164,621.458 376.03,619.253 376.03,619.253C376.03,619.253 384.023,624.489 384.849,625.592C385.676,626.694 395.046,627.245 395.046,627.245C395.046,627.245 399.731,627.797 398.905,629.45C398.078,631.104 393.944,633.033 393.944,633.033C393.944,633.033 408.55,631.379 410.204,630.001C411.858,628.623 420.952,610.434 422.881,610.158C424.81,609.883 425.912,606.576 425.912,606.576C425.912,606.576 430.046,589.765 428.944,588.938C427.842,588.111 426.188,579.292 426.188,576.536C426.188,573.78 423.708,542.914 420.676,539.882C417.645,536.85 412.96,534.37 412.96,534.37L412.96,534.37ZM431.436,540.978C431.436,540.978 452.936,587 452.936,591.134C452.936,595.268 450.726,627 449.623,628.103C448.521,629.205 438.3,634.412 437.748,635.79C437.197,637.169 432.328,638.722 430.123,638.447C427.919,638.171 433.069,641.009 434.998,641.009C436.928,641.009 445.195,639.103 447.123,639.103C449.053,639.103 452.371,639.634 453.748,639.634C455.126,639.634 459.541,641.58 460.092,643.509C460.643,645.438 461.729,655.617 462.28,660.853C462.831,666.09 467.53,687.336 467.53,689.541C467.53,690.971 465.602,693.778 464.217,695.666C471.451,695.515 478.22,695.25 479.936,694.76C483.795,693.658 482.132,685.951 481.03,681.541C479.928,677.132 471.124,632.479 471.124,632.479C471.124,632.479 471.968,626.411 471.968,623.104C471.968,619.797 470.57,616.23 469.468,610.166C468.365,604.103 470.005,592.505 467.249,577.072C465.572,567.681 461.856,555.467 456.843,546.447C448.597,543.286 440.395,539.862 431.437,540.978L431.436,540.978ZM364.717,549.79C364.717,549.79 357.845,572.939 356.467,576.385C353.711,577.625 350.664,608.535 351.874,611.01C352.867,613.042 352.062,618.417 352.062,618.417C352.062,618.417 352.062,618.448 352.062,618.448L352.187,618.417C352.187,618.417 354.612,611.03 356.062,607.417C358.956,600.206 365.687,588.679 365.687,586.198C365.687,583.717 365.763,574.726 364.874,572.948C363.909,571.018 363.348,567.854 363.624,564.823C363.9,561.791 364.718,549.792 364.718,549.792L364.717,549.79ZM374.101,594.449C372.704,595.521 372.998,598.859 373.412,599.686C373.825,600.513 374.239,595.828 374.79,595.828C375.341,595.828 379.062,599.961 379.062,599.961C379.062,599.961 376.995,601.615 376.168,601.615C375.341,601.615 373.963,601.202 373.963,601.202C373.963,601.202 374.239,602.993 375.203,602.993C376.168,602.993 383.168,600.73 384.16,600.788C386.503,600.926 397.802,603.406 399.318,603.269C400.834,603.131 401.798,600.651 400.696,600.375C399.594,600.099 395.598,592.934 393.806,592.796C392.015,592.658 390.546,591.755 383.333,591.556C381.793,591.513 377.141,592.119 374.101,594.45L374.101,594.449ZM387.743,568.268C387.743,568.268 386.916,562.481 388.57,561.516C390.223,560.552 392.152,559.863 393.944,560.414C395.735,560.965 400.971,565.65 401.798,567.304C402.441,568.591 403.452,574.056 403.452,574.056C403.452,574.056 392.979,574.883 392.428,574.883C392.27,572.737 394.38,572.565 392.841,570.198C391.187,569.646 387.743,568.268 387.743,568.268L387.743,568.268ZM369.692,567.993C369.692,567.993 367.487,563.308 369.967,562.481C372.448,561.654 375.548,562.574 377.271,564.41C379.706,567.005 380.716,574.607 379.337,574.883C377.96,575.159 371.07,574.883 371.07,574.883C371.07,574.883 375.755,574.332 375.479,572.679C375.204,571.025 374.928,571.025 373.137,569.923C371.963,569.201 369.692,567.994 369.692,567.994L369.692,567.993ZM350.936,644.043C350.936,644.043 357.563,647.642 359.217,647.918C360.871,648.194 363.623,654.262 363.623,654.262C363.623,654.262 363.081,658.398 362.805,662.256C362.666,664.2 360.313,676.863 361.967,678.793C363.621,680.722 367.757,687.339 366.654,689.543C366.2,690.452 365.515,691.615 364.904,692.7C367.492,692.614 369.766,692.406 371.342,692.012C377.956,690.358 382.373,688.7 382.373,688.7L380.717,667.2L380.717,652.325C380.717,652.325 414.879,649.021 418.186,647.918C421.493,646.816 424.285,646.75 427.03,647.637C428.307,648.05 429.645,649.146 430.748,650.231L431.155,649.856C431.155,649.856 427.272,644.612 424.53,644.887C406.527,646.692 377.687,649.299 374.655,649.575C371.623,649.85 361.147,645.7 359.217,645.7C357.287,645.7 350.935,644.043 350.935,644.043L350.936,644.043Z" style="fill:rgb(89,81,81);fill-rule:nonzero;"/>
                </g>
            </g>
        </g>
    </g>
</svg>
